<svg width="203" height="218" viewBox="0 0 203 218" fill="none" xmlns="http://www.w3.org/2000/svg">
<path d="M17.2598 59.125H18.7832C18.944 59.125 19.0646 59.1631 19.145 59.2393C19.2254 59.3154 19.2656 59.4297 19.2656 59.582C19.2656 59.7471 19.2254 59.8634 19.145 59.9312C19.0688 59.9989 18.9313 60.0327 18.7324 60.0327H15.9331C15.7638 60.0327 15.6348 59.9946 15.5459 59.9185C15.4613 59.8423 15.4189 59.7301 15.4189 59.582C15.4189 59.4128 15.4718 59.2943 15.5776 59.2266C15.6877 59.1589 15.8887 59.125 16.1807 59.125H16.3013V52.5361H16.1807C15.8887 52.5361 15.6877 52.5023 15.5776 52.4346C15.4718 52.3669 15.4189 52.2484 15.4189 52.0791C15.4189 51.931 15.4613 51.821 15.5459 51.749C15.6348 51.6729 15.7638 51.6348 15.9331 51.6348H16.8979C17.0249 51.6348 17.1159 51.6559 17.1709 51.6982C17.2301 51.7406 17.2598 51.8062 17.2598 51.895V52.5107C17.5475 52.2145 17.8649 51.9924 18.2119 51.8442C18.5632 51.6961 18.9398 51.6221 19.3418 51.6221C20.1924 51.6221 20.9033 51.9098 21.4746 52.4854C22.0459 53.0609 22.3315 53.7824 22.3315 54.6499C22.3315 55.4836 22.0607 56.1691 21.519 56.7065C20.9774 57.244 20.2855 57.5127 19.4434 57.5127C18.9948 57.5127 18.5822 57.4344 18.2056 57.2778C17.8289 57.117 17.5137 56.8885 17.2598 56.5923V59.125ZM19.2275 56.5796C19.8158 56.5796 20.2982 56.3955 20.6748 56.0273C21.0514 55.6549 21.2397 55.1746 21.2397 54.5864C21.2397 54.0109 21.0493 53.5369 20.6685 53.1646C20.2918 52.7879 19.8115 52.5996 19.2275 52.5996C18.6436 52.5996 18.1654 52.7858 17.793 53.1582C17.4206 53.5306 17.2344 54.0067 17.2344 54.5864C17.2344 55.1704 17.4185 55.6486 17.7866 56.021C18.159 56.3934 18.6393 56.5796 19.2275 56.5796ZM26.083 56.605H28.1904C28.3555 56.605 28.4761 56.641 28.5522 56.7129C28.6326 56.7806 28.6729 56.8906 28.6729 57.043C28.6729 57.2165 28.6348 57.3371 28.5586 57.4048C28.4867 57.4683 28.3512 57.5 28.1523 57.5H24.001C23.8359 57.5 23.7111 57.4619 23.6265 57.3857C23.5418 57.3096 23.4995 57.1953 23.4995 57.043C23.4995 56.8949 23.5418 56.7848 23.6265 56.7129C23.7153 56.641 23.8507 56.605 24.0327 56.605H25.1372V52.5361H24.7056C24.2951 52.5361 24.0391 52.5044 23.9375 52.4409C23.8359 52.3732 23.7852 52.2526 23.7852 52.0791C23.7852 51.931 23.8254 51.821 23.9058 51.749C23.9904 51.6729 24.1174 51.6348 24.2866 51.6348H25.7339C25.8481 51.6348 25.9349 51.658 25.9941 51.7046C26.0534 51.7469 26.083 51.8104 26.083 51.895V52.9741C26.485 52.4705 26.904 52.096 27.3398 51.8506C27.7757 51.6051 28.2454 51.4824 28.749 51.4824C29.1257 51.4824 29.4303 51.5586 29.6631 51.7109C29.8958 51.8633 30.0122 52.0601 30.0122 52.3013C30.0122 52.4578 29.953 52.5975 29.8345 52.7202C29.7202 52.8387 29.5933 52.8979 29.4536 52.8979C29.3563 52.8979 29.1912 52.8345 28.9585 52.7075C28.73 52.5763 28.5247 52.5107 28.3428 52.5107C28.0127 52.5107 27.6636 52.6292 27.2954 52.8662C26.9315 53.099 26.5273 53.4692 26.083 53.9771V56.605ZM34.5127 56.77C35.1644 56.77 35.6976 56.5648 36.1123 56.1543C36.5312 55.7396 36.7407 55.2127 36.7407 54.5737C36.7407 53.9347 36.5312 53.4079 36.1123 52.9932C35.6934 52.5742 35.1602 52.3647 34.5127 52.3647C33.8652 52.3647 33.332 52.5742 32.9131 52.9932C32.4984 53.4079 32.291 53.9347 32.291 54.5737C32.291 55.217 32.4984 55.7438 32.9131 56.1543C33.3278 56.5648 33.861 56.77 34.5127 56.77ZM37.8452 54.5737C37.8452 55.4793 37.5363 56.2199 36.9185 56.7954C36.3006 57.3709 35.4987 57.6587 34.5127 57.6587C33.5309 57.6587 32.7311 57.3709 32.1133 56.7954C31.4954 56.2199 31.1865 55.4793 31.1865 54.5737C31.1865 53.6681 31.4954 52.9297 32.1133 52.3584C32.7311 51.7829 33.5309 51.4951 34.5127 51.4951C35.4945 51.4951 36.2943 51.7829 36.9121 52.3584C37.5342 52.9339 37.8452 53.6724 37.8452 54.5737ZM42.5552 49.8066C42.5552 49.3538 42.5975 49.0682 42.6821 48.9497C42.7668 48.827 42.9466 48.7656 43.2217 48.7656C43.4798 48.7656 43.6491 48.8143 43.7295 48.9116C43.8141 49.009 43.8564 49.2459 43.8564 49.6226C43.8564 49.995 43.8184 50.2235 43.7422 50.3081C43.666 50.3885 43.4925 50.4287 43.2217 50.4287C42.9466 50.4287 42.7668 50.3885 42.6821 50.3081C42.5975 50.2235 42.5552 50.0563 42.5552 49.8066ZM44.2754 57.1255C44.2754 57.6629 44.2437 58.0713 44.1802 58.3506C44.1167 58.6299 44.013 58.8626 43.8691 59.0488C43.6279 59.362 43.2936 59.599 42.8662 59.7598C42.4388 59.9248 41.9373 60.0073 41.3618 60.0073C40.8836 60.0073 40.5324 59.9587 40.3081 59.8613C40.0838 59.764 39.9717 59.6138 39.9717 59.4106C39.9717 59.2795 40.0246 59.1631 40.1304 59.0615C40.2404 58.9642 40.3695 58.9155 40.5176 58.9155C40.6318 58.9155 40.8096 58.9303 41.0508 58.96C41.292 58.9938 41.474 59.0107 41.5967 59.0107C42.2145 59.0107 42.6546 58.8669 42.917 58.5791C43.1794 58.2956 43.3105 57.8026 43.3105 57.1001V52.5361H40.8286C40.4181 52.5361 40.16 52.5044 40.0542 52.4409C39.9526 52.3732 39.9019 52.2526 39.9019 52.0791C39.9019 51.931 39.9442 51.821 40.0288 51.749C40.1134 51.6729 40.2404 51.6348 40.4097 51.6348H43.9072C44.0215 51.6348 44.1104 51.658 44.1738 51.7046C44.2415 51.7511 44.2754 51.8146 44.2754 51.895V57.1255ZM47.9824 54.8467C48.0163 55.4561 48.2215 55.9279 48.5981 56.2622C48.979 56.5923 49.4974 56.7573 50.1533 56.7573C50.6484 56.7573 51.188 56.6261 51.772 56.3638C52.356 56.0972 52.7093 55.9639 52.832 55.9639C52.959 55.9639 53.0648 56.0041 53.1494 56.0845C53.234 56.1649 53.2764 56.2643 53.2764 56.3828C53.2764 56.5055 53.2319 56.6177 53.1431 56.7192C53.0542 56.8208 52.9124 56.9202 52.7178 57.0176C52.2946 57.2249 51.8566 57.3836 51.4038 57.4937C50.9552 57.6037 50.5088 57.6587 50.0645 57.6587C49.0996 57.6587 48.3273 57.3815 47.7476 56.8271C47.1678 56.2686 46.8779 55.5301 46.8779 54.6118C46.8779 53.6766 47.1847 52.9191 47.7983 52.3394C48.4119 51.7596 49.2118 51.4697 50.1978 51.4697C51.0907 51.4697 51.8312 51.7406 52.4194 52.2822C53.0076 52.8239 53.3018 53.4798 53.3018 54.25C53.3018 54.487 53.251 54.6457 53.1494 54.7261C53.0521 54.8065 52.7834 54.8467 52.3433 54.8467H52.248H47.9824ZM48.0142 54.0151H52.1465C52.083 53.5116 51.8714 53.1074 51.5117 52.8027C51.1562 52.4938 50.7183 52.3394 50.1978 52.3394C49.6349 52.3394 49.161 52.4875 48.7759 52.7837C48.3908 53.0799 48.1369 53.4904 48.0142 54.0151ZM59.8462 52.0156V51.9902C59.8462 51.8506 59.8864 51.749 59.9668 51.6855C60.0472 51.6178 60.172 51.584 60.3413 51.584C60.5148 51.584 60.6333 51.6348 60.6968 51.7363C60.7645 51.8379 60.7983 52.0474 60.7983 52.3647V53.5454C60.7983 53.702 60.7581 53.8205 60.6777 53.9009C60.5973 53.9771 60.4767 54.0151 60.3159 54.0151C60.2017 54.0151 60.1022 53.9834 60.0176 53.9199C59.9372 53.8522 59.8377 53.7147 59.7192 53.5073C59.5161 53.1646 59.2686 52.9064 58.9766 52.7329C58.6888 52.5552 58.3566 52.4663 57.98 52.4663C57.3198 52.4663 56.7824 52.661 56.3677 53.0503C55.9572 53.4396 55.752 53.9432 55.752 54.561C55.752 55.1916 55.9487 55.7078 56.3423 56.1099C56.7401 56.5076 57.25 56.7065 57.8721 56.7065C58.1556 56.7065 58.4243 56.6685 58.6782 56.5923C58.9364 56.5119 59.1797 56.3934 59.4082 56.2368C59.4886 56.186 59.5965 56.1077 59.7319 56.002C60.007 55.7777 60.2228 55.6655 60.3794 55.6655C60.5106 55.6655 60.6164 55.7078 60.6968 55.7925C60.7814 55.8729 60.8237 55.9787 60.8237 56.1099C60.8237 56.4442 60.5063 56.7869 59.8716 57.1382C59.241 57.4852 58.5703 57.6587 57.8594 57.6587C56.9411 57.6587 56.1751 57.3646 55.5615 56.7764C54.9521 56.1882 54.6475 55.4539 54.6475 54.5737C54.6475 53.6935 54.9521 52.9593 55.5615 52.3711C56.1709 51.7786 56.9326 51.4824 57.8467 51.4824C58.1683 51.4824 58.4899 51.5269 58.8115 51.6157C59.1374 51.7004 59.4823 51.8337 59.8462 52.0156ZM67.4761 51.9902C67.6834 51.9902 67.8337 52.0262 67.9268 52.0981C68.0241 52.1701 68.0728 52.2843 68.0728 52.4409C68.0728 52.589 68.0283 52.7012 67.9395 52.7773C67.8506 52.8493 67.7173 52.8853 67.5396 52.8853H64.9688V55.0054C64.9688 55.6994 65.0576 56.1564 65.2354 56.3765C65.4173 56.5965 65.7262 56.7065 66.1621 56.7065C66.5472 56.7065 67.0085 56.5944 67.5459 56.3701C68.0833 56.1458 68.4155 56.0337 68.5425 56.0337C68.661 56.0337 68.7604 56.076 68.8408 56.1606C68.9255 56.2453 68.9678 56.349 68.9678 56.4717C68.9678 56.6113 68.9149 56.734 68.8091 56.8398C68.7075 56.9414 68.5319 57.0409 68.2822 57.1382C67.8675 57.3032 67.493 57.4238 67.1587 57.5C66.8286 57.5762 66.5176 57.6143 66.2256 57.6143C65.7305 57.6143 65.3136 57.536 64.9751 57.3794C64.6408 57.2186 64.3911 56.9816 64.2261 56.6685C64.1414 56.5203 64.0801 56.3447 64.042 56.1416C64.0081 55.9385 63.9912 55.6253 63.9912 55.2021V55.0054V52.8853H62.9121C62.7344 52.8853 62.6053 52.8514 62.5249 52.7837C62.4445 52.7118 62.4043 52.5975 62.4043 52.4409C62.4043 52.2674 62.4593 52.1489 62.5693 52.0854C62.6794 52.022 62.9142 51.9902 63.2739 51.9902H63.9912V50.689V50.3525C63.9912 50.1706 64.0293 50.0373 64.1055 49.9526C64.1859 49.8638 64.3086 49.8193 64.4736 49.8193C64.6598 49.8193 64.7889 49.8722 64.8608 49.978C64.9328 50.0838 64.9688 50.325 64.9688 50.7017V51.9902H67.4761ZM70.9038 55.1831C70.8192 55.1831 70.7515 55.1577 70.7007 55.1069C70.6541 55.0519 70.6309 54.9779 70.6309 54.8848V54.2119C70.6309 54.1315 70.6541 54.068 70.7007 54.0215C70.7515 53.9749 70.8192 53.9517 70.9038 53.9517H76.166C76.2633 53.9517 76.3395 53.9749 76.3945 54.0215C76.4495 54.068 76.4771 54.1315 76.4771 54.2119V54.8848C76.4771 54.9609 76.4453 55.0308 76.3818 55.0942C76.3184 55.1535 76.2464 55.1831 76.166 55.1831H70.9038ZM83.269 57.5C83.1802 57.5 83.1167 57.4788 83.0786 57.4365C83.0448 57.39 83.0278 57.3032 83.0278 57.1763V56.6558C82.7739 56.9731 82.4565 57.2207 82.0757 57.3984C81.6948 57.5719 81.2822 57.6587 80.8379 57.6587C80.0381 57.6587 79.3674 57.3752 78.8257 56.8081C78.2882 56.2368 78.0195 55.528 78.0195 54.6816C78.0195 53.8057 78.3073 53.0778 78.8828 52.498C79.4583 51.9141 80.1756 51.6221 81.0347 51.6221C81.4705 51.6221 81.862 51.7004 82.209 51.8569C82.556 52.0093 82.8543 52.2357 83.104 52.5361V50.105H82.7676C82.3994 50.105 82.1603 50.0732 82.0503 50.0098C81.9445 49.9421 81.8916 49.8215 81.8916 49.6479C81.8916 49.4956 81.9339 49.3813 82.0186 49.3052C82.1074 49.229 82.2344 49.1909 82.3994 49.1909H83.7007C83.8276 49.1909 83.9186 49.2121 83.9736 49.2544C84.0329 49.2967 84.0625 49.3623 84.0625 49.4512V56.605H84.3481C84.5555 56.605 84.7057 56.641 84.7988 56.7129C84.8919 56.7806 84.9385 56.8906 84.9385 57.043C84.9385 57.1868 84.8983 57.299 84.8179 57.3794C84.7375 57.4598 84.6296 57.5 84.4941 57.5H83.269ZM79.1113 54.6499C79.1113 55.2339 79.2996 55.7121 79.6763 56.0845C80.0529 56.4569 80.5311 56.6431 81.1108 56.6431C81.6948 56.6431 82.1751 56.4505 82.5518 56.0654C82.9284 55.6761 83.1167 55.1831 83.1167 54.5864C83.1167 53.9982 82.9284 53.5137 82.5518 53.1328C82.1794 52.752 81.6991 52.5615 81.1108 52.5615C80.5142 52.5615 80.0317 52.7541 79.6636 53.1392C79.2954 53.5243 79.1113 54.0278 79.1113 54.6499ZM88.582 49.8066C88.582 49.3496 88.6222 49.0618 88.7026 48.9434C88.7873 48.8249 88.965 48.7656 89.2358 48.7656C89.4982 48.7656 89.6717 48.8164 89.7563 48.918C89.841 49.0153 89.8833 49.2502 89.8833 49.6226C89.8833 49.9865 89.8431 50.2129 89.7627 50.3018C89.6865 50.3864 89.5109 50.4287 89.2358 50.4287C88.965 50.4287 88.7873 50.3885 88.7026 50.3081C88.6222 50.2277 88.582 50.0605 88.582 49.8066ZM89.7563 56.605H91.7939C91.959 56.605 92.0796 56.641 92.1558 56.7129C92.2362 56.7806 92.2764 56.8906 92.2764 57.043C92.2764 57.2165 92.2383 57.3371 92.1621 57.4048C92.0902 57.4683 91.9548 57.5 91.7559 57.5H86.8301C86.6608 57.5 86.5339 57.4619 86.4492 57.3857C86.3646 57.3096 86.3223 57.1953 86.3223 57.043C86.3223 56.8949 86.3667 56.7848 86.4556 56.7129C86.5444 56.641 86.6777 56.605 86.8555 56.605H88.7915V52.5361H87.5537C87.3802 52.5361 87.2469 52.498 87.1538 52.4219C87.0649 52.3415 87.0205 52.2272 87.0205 52.0791C87.0205 51.931 87.0628 51.821 87.1475 51.749C87.2321 51.6729 87.359 51.6348 87.5283 51.6348H89.3882C89.5024 51.6348 89.5913 51.658 89.6548 51.7046C89.7225 51.7511 89.7563 51.8146 89.7563 51.895V56.605ZM96.3516 56.605H98.459C98.624 56.605 98.7446 56.641 98.8208 56.7129C98.9012 56.7806 98.9414 56.8906 98.9414 57.043C98.9414 57.2165 98.9033 57.3371 98.8271 57.4048C98.7552 57.4683 98.6198 57.5 98.4209 57.5H94.2695C94.1045 57.5 93.9797 57.4619 93.895 57.3857C93.8104 57.3096 93.7681 57.1953 93.7681 57.043C93.7681 56.8949 93.8104 56.7848 93.895 56.7129C93.9839 56.641 94.1193 56.605 94.3013 56.605H95.4058V52.5361H94.9741C94.5636 52.5361 94.3076 52.5044 94.2061 52.4409C94.1045 52.3732 94.0537 52.2526 94.0537 52.0791C94.0537 51.931 94.0939 51.821 94.1743 51.749C94.259 51.6729 94.3859 51.6348 94.5552 51.6348H96.0024C96.1167 51.6348 96.2035 51.658 96.2627 51.7046C96.3219 51.7469 96.3516 51.8104 96.3516 51.895V52.9741C96.7536 52.4705 97.1725 52.096 97.6084 51.8506C98.0443 51.6051 98.514 51.4824 99.0176 51.4824C99.3942 51.4824 99.6989 51.5586 99.9316 51.7109C100.164 51.8633 100.281 52.0601 100.281 52.3013C100.281 52.4578 100.222 52.5975 100.103 52.7202C99.9888 52.8387 99.8618 52.8979 99.7222 52.8979C99.6248 52.8979 99.4598 52.8345 99.2271 52.7075C98.9985 52.5763 98.7933 52.5107 98.6113 52.5107C98.2812 52.5107 97.9321 52.6292 97.564 52.8662C97.2 53.099 96.7959 53.4692 96.3516 53.9771V56.605ZM18.5103 69.4517H19.2783V82.6992H18.5103V69.4517ZM22.8076 75.509V74.859H33.7016V75.509H22.8076ZM33.7002 75.509V74.859H44.5942V75.509H33.7002ZM58.2085 74.0156V73.9902C58.2085 73.8506 58.2487 73.749 58.3291 73.6855C58.4095 73.6178 58.5343 73.584 58.7036 73.584C58.8771 73.584 58.9956 73.6348 59.0591 73.7363C59.1268 73.8379 59.1606 74.0474 59.1606 74.3647V75.5454C59.1606 75.702 59.1204 75.8205 59.04 75.9009C58.9596 75.9771 58.839 76.0151 58.6782 76.0151C58.564 76.0151 58.4645 75.9834 58.3799 75.9199C58.2995 75.8522 58.2 75.7147 58.0815 75.5073C57.8784 75.1646 57.6309 74.9064 57.3389 74.7329C57.0511 74.5552 56.7189 74.4663 56.3423 74.4663C55.6821 74.4663 55.1447 74.661 54.73 75.0503C54.3195 75.4396 54.1143 75.9432 54.1143 76.561C54.1143 77.1916 54.311 77.7078 54.7046 78.1099C55.1024 78.5076 55.6123 78.7065 56.2344 78.7065C56.5179 78.7065 56.7866 78.6685 57.0405 78.5923C57.2987 78.5119 57.542 78.3934 57.7705 78.2368C57.8509 78.186 57.9588 78.1077 58.0942 78.002C58.3693 77.7777 58.5851 77.6655 58.7417 77.6655C58.8729 77.6655 58.9787 77.7078 59.0591 77.7925C59.1437 77.8729 59.186 77.9787 59.186 78.1099C59.186 78.4442 58.8687 78.7869 58.2339 79.1382C57.6034 79.4852 56.9326 79.6587 56.2217 79.6587C55.3034 79.6587 54.5374 79.3646 53.9238 78.7764C53.3145 78.1882 53.0098 77.4539 53.0098 76.5737C53.0098 75.6935 53.3145 74.9593 53.9238 74.3711C54.5332 73.7786 55.2949 73.4824 56.209 73.4824C56.5306 73.4824 56.8522 73.5269 57.1738 73.6157C57.4997 73.7004 57.8446 73.8337 58.2085 74.0156ZM64.1055 78.77C64.7572 78.77 65.2904 78.5648 65.7051 78.1543C66.124 77.7396 66.3335 77.2127 66.3335 76.5737C66.3335 75.9347 66.124 75.4079 65.7051 74.9932C65.2861 74.5742 64.7529 74.3647 64.1055 74.3647C63.458 74.3647 62.9248 74.5742 62.5059 74.9932C62.0911 75.4079 61.8838 75.9347 61.8838 76.5737C61.8838 77.217 62.0911 77.7438 62.5059 78.1543C62.9206 78.5648 63.4538 78.77 64.1055 78.77ZM67.438 76.5737C67.438 77.4793 67.1291 78.2199 66.5112 78.7954C65.8934 79.3709 65.0915 79.6587 64.1055 79.6587C63.1237 79.6587 62.3239 79.3709 61.7061 78.7954C61.0882 78.2199 60.7793 77.4793 60.7793 76.5737C60.7793 75.6681 61.0882 74.9297 61.7061 74.3584C62.3239 73.7829 63.1237 73.4951 64.1055 73.4951C65.0872 73.4951 65.887 73.7829 66.5049 74.3584C67.127 74.9339 67.438 75.6724 67.438 76.5737ZM69.5518 78.605V74.5361H69.4312C69.1434 74.5361 68.9445 74.5023 68.8345 74.4346C68.7287 74.3669 68.6758 74.2484 68.6758 74.0791C68.6758 73.9225 68.7202 73.8104 68.8091 73.7427C68.8979 73.6707 69.0418 73.6348 69.2407 73.6348H69.5391H70.1484C70.2627 73.6348 70.3516 73.658 70.415 73.7046C70.4785 73.7511 70.5103 73.8146 70.5103 73.895V74.3267C70.8192 74.0389 71.1239 73.8273 71.4243 73.6919C71.729 73.5522 72.0443 73.4824 72.3701 73.4824C73.0091 73.4824 73.5106 73.6813 73.8745 74.0791C74.2427 74.4769 74.4268 75.027 74.4268 75.7295V78.605H74.7251C74.9367 78.605 75.089 78.641 75.1821 78.7129C75.2752 78.7806 75.3218 78.8906 75.3218 79.043C75.3218 79.208 75.271 79.3265 75.1694 79.3984C75.0721 79.4661 74.8965 79.5 74.6426 79.5H73.2397C72.9689 79.5 72.7954 79.4683 72.7192 79.4048C72.6431 79.3413 72.605 79.2207 72.605 79.043C72.605 78.8779 72.6494 78.7637 72.7383 78.7002C72.8271 78.6367 72.9943 78.605 73.2397 78.605H73.4619V75.9644C73.4619 75.4692 73.3498 75.0926 73.1255 74.8345C72.9012 74.5721 72.5754 74.4409 72.1479 74.4409C71.7163 74.4409 71.3354 74.5869 71.0054 74.8789C70.6753 75.1709 70.5103 75.5327 70.5103 75.9644V78.605H70.7324C70.9863 78.605 71.1577 78.6367 71.2466 78.7002C71.3354 78.7637 71.3799 78.8779 71.3799 79.043C71.3799 79.2207 71.3418 79.3413 71.2656 79.4048C71.1895 79.4683 71.0033 79.5 70.707 79.5H69.5518H69.209C69.0355 79.5 68.9043 79.464 68.8154 79.3921C68.7308 79.3159 68.6885 79.1995 68.6885 79.043C68.6885 78.8737 68.7371 78.7594 68.8345 78.7002C68.936 78.6367 69.1307 78.605 69.4185 78.605H69.5518ZM81.6758 78.5923C81.8493 78.5923 81.9805 78.6304 82.0693 78.7065C82.1624 78.7827 82.209 78.8949 82.209 79.043C82.209 79.1953 82.1646 79.3096 82.0757 79.3857C81.991 79.4619 81.8662 79.5 81.7012 79.5H77.5498C77.3763 79.5 77.243 79.4619 77.1499 79.3857C77.061 79.3096 77.0166 79.1953 77.0166 79.043C77.0166 78.8949 77.0589 78.7827 77.1436 78.7065C77.2324 78.6304 77.3594 78.5923 77.5244 78.5923H78.6035V74.7139H77.5625C77.389 74.7139 77.2536 74.6737 77.1562 74.5933C77.0632 74.5129 77.0166 74.3986 77.0166 74.2505C77.0166 74.0981 77.061 73.9839 77.1499 73.9077C77.2388 73.8315 77.3678 73.7935 77.5371 73.7935H78.54V73.3618C78.54 72.5959 78.758 72.0415 79.1938 71.6987C79.6297 71.3517 80.3343 71.1782 81.3076 71.1782C81.7816 71.1782 82.1307 71.2311 82.355 71.3369C82.5835 71.4427 82.6978 71.6077 82.6978 71.832C82.6978 71.9632 82.6491 72.0711 82.5518 72.1558C82.4544 72.2404 82.3296 72.2827 82.1772 72.2827C82.1011 72.2827 81.917 72.2573 81.625 72.2065C81.3372 72.1558 81.0897 72.1304 80.8823 72.1304C80.4041 72.1304 80.0614 72.2319 79.854 72.4351C79.6466 72.634 79.543 72.9661 79.543 73.4316V73.7935H81.79C81.9635 73.7935 82.0947 73.8315 82.1836 73.9077C82.2767 73.9839 82.3232 74.0981 82.3232 74.2505C82.3232 74.3944 82.2767 74.5086 82.1836 74.5933C82.0905 74.6737 81.9635 74.7139 81.8027 74.7139H79.6064V78.5923H81.6758ZM35.7372 97.509V87.486H36.3872V96.859H41.6392V97.509H35.7372ZM41.5078 97.509V96.859H52.4018V97.509H41.5078ZM52.4004 97.509V96.859H63.2944V97.509H52.4004ZM76.9087 96.0156V95.9902C76.9087 95.8506 76.9489 95.749 77.0293 95.6855C77.1097 95.6178 77.2345 95.584 77.4038 95.584C77.5773 95.584 77.6958 95.6348 77.7593 95.7363C77.827 95.8379 77.8608 96.0474 77.8608 96.3647V97.5454C77.8608 97.702 77.8206 97.8205 77.7402 97.9009C77.6598 97.9771 77.5392 98.0151 77.3784 98.0151C77.2642 98.0151 77.1647 97.9834 77.0801 97.9199C76.9997 97.8522 76.9002 97.7147 76.7817 97.5073C76.5786 97.1646 76.3311 96.9064 76.0391 96.7329C75.7513 96.5552 75.4191 96.4663 75.0425 96.4663C74.3823 96.4663 73.8449 96.661 73.4302 97.0503C73.0197 97.4396 72.8145 97.9432 72.8145 98.561C72.8145 99.1916 73.0112 99.7078 73.4048 100.11C73.8026 100.508 74.3125 100.707 74.9346 100.707C75.2181 100.707 75.4868 100.668 75.7407 100.592C75.9989 100.512 76.2422 100.393 76.4707 100.237C76.5511 100.186 76.659 100.108 76.7944 100.002C77.0695 99.7777 77.2853 99.6655 77.4419 99.6655C77.5731 99.6655 77.6789 99.7078 77.7593 99.7925C77.8439 99.8729 77.8862 99.9787 77.8862 100.11C77.8862 100.444 77.5688 100.787 76.9341 101.138C76.3035 101.485 75.6328 101.659 74.9219 101.659C74.0036 101.659 73.2376 101.365 72.624 100.776C72.0146 100.188 71.71 99.4539 71.71 98.5737C71.71 97.6935 72.0146 96.9593 72.624 96.3711C73.2334 95.7786 73.9951 95.4824 74.9092 95.4824C75.2308 95.4824 75.5524 95.5269 75.874 95.6157C76.1999 95.7004 76.5448 95.8337 76.9087 96.0156ZM84.2148 98.6943C83.9821 98.6182 83.7557 98.5632 83.5356 98.5293C83.3198 98.4912 83.104 98.4722 82.8882 98.4722C82.2365 98.4722 81.7223 98.5822 81.3457 98.8022C80.9691 99.0223 80.7808 99.3185 80.7808 99.6909C80.7808 99.9787 80.8971 100.216 81.1299 100.402C81.3669 100.588 81.6673 100.681 82.0312 100.681C82.5687 100.681 83.0659 100.542 83.5229 100.262C83.9842 99.9787 84.2148 99.6846 84.2148 99.3799V98.6943ZM84.2656 100.694C83.9186 101.007 83.5399 101.246 83.1294 101.411C82.7231 101.576 82.3042 101.659 81.8726 101.659C81.242 101.659 80.7321 101.483 80.3428 101.132C79.9577 100.781 79.7651 100.324 79.7651 99.7607C79.7651 99.0921 80.0212 98.5737 80.5332 98.2056C81.0495 97.8374 81.7731 97.6533 82.7041 97.6533C82.9495 97.6533 83.1971 97.6702 83.4468 97.7041C83.6965 97.7337 83.9525 97.7824 84.2148 97.8501V97.8057C84.2148 97.319 84.0985 96.9593 83.8657 96.7266C83.633 96.4938 83.2712 96.3774 82.7803 96.3774C82.4502 96.3774 82.082 96.4663 81.6758 96.644C81.2695 96.8218 81.0008 96.9106 80.8696 96.9106C80.7469 96.9106 80.6453 96.862 80.5649 96.7646C80.4845 96.6631 80.4443 96.534 80.4443 96.3774C80.4443 96.1278 80.6771 95.9162 81.1426 95.7427C81.6123 95.5692 82.2111 95.4824 82.939 95.4824C83.6838 95.4824 84.2466 95.6729 84.6274 96.0537C85.0083 96.4303 85.1987 96.9889 85.1987 97.7295V100.605H85.5098C85.8102 100.605 86.0112 100.637 86.1128 100.7C86.2144 100.764 86.2651 100.878 86.2651 101.043C86.2651 101.195 86.2228 101.31 86.1382 101.386C86.0535 101.462 85.9266 101.5 85.7573 101.5H84.7607C84.6423 101.5 84.5449 101.464 84.4688 101.392C84.3926 101.32 84.3418 101.216 84.3164 101.081L84.2656 100.694ZM92.3462 95.9902C92.5535 95.9902 92.7038 96.0262 92.7969 96.0981C92.8942 96.1701 92.9429 96.2843 92.9429 96.4409C92.9429 96.589 92.8984 96.7012 92.8096 96.7773C92.7207 96.8493 92.5874 96.8853 92.4097 96.8853H89.8389V99.0054C89.8389 99.6994 89.9277 100.156 90.1055 100.376C90.2874 100.597 90.5964 100.707 91.0322 100.707C91.4173 100.707 91.8786 100.594 92.416 100.37C92.9535 100.146 93.2856 100.034 93.4126 100.034C93.5311 100.034 93.6305 100.076 93.7109 100.161C93.7956 100.245 93.8379 100.349 93.8379 100.472C93.8379 100.611 93.785 100.734 93.6792 100.84C93.5776 100.941 93.402 101.041 93.1523 101.138C92.7376 101.303 92.3631 101.424 92.0288 101.5C91.6987 101.576 91.3877 101.614 91.0957 101.614C90.6006 101.614 90.1838 101.536 89.8452 101.379C89.5109 101.219 89.2612 100.982 89.0962 100.668C89.0116 100.52 88.9502 100.345 88.9121 100.142C88.8783 99.9385 88.8613 99.6253 88.8613 99.2021V99.0054V96.8853H87.7822C87.6045 96.8853 87.4754 96.8514 87.395 96.7837C87.3146 96.7118 87.2744 96.5975 87.2744 96.4409C87.2744 96.2674 87.3294 96.1489 87.4395 96.0854C87.5495 96.022 87.7843 95.9902 88.144 95.9902H88.8613V94.689V94.3525C88.8613 94.1706 88.8994 94.0373 88.9756 93.9526C89.056 93.8638 89.1787 93.8193 89.3438 93.8193C89.5299 93.8193 89.659 93.8722 89.731 93.978C89.8029 94.0838 89.8389 94.325 89.8389 94.7017V95.9902H92.3462ZM99.8301 98.6943C99.5973 98.6182 99.3709 98.5632 99.1509 98.5293C98.9351 98.4912 98.7192 98.4722 98.5034 98.4722C97.8517 98.4722 97.3376 98.5822 96.9609 98.8022C96.5843 99.0223 96.396 99.3185 96.396 99.6909C96.396 99.9787 96.5124 100.216 96.7451 100.402C96.9821 100.588 97.2826 100.681 97.6465 100.681C98.1839 100.681 98.6812 100.542 99.1382 100.262C99.5994 99.9787 99.8301 99.6846 99.8301 99.3799V98.6943ZM99.8809 100.694C99.5339 101.007 99.1551 101.246 98.7446 101.411C98.3384 101.576 97.9194 101.659 97.4878 101.659C96.8573 101.659 96.3473 101.483 95.958 101.132C95.5729 100.781 95.3804 100.324 95.3804 99.7607C95.3804 99.0921 95.6364 98.5737 96.1484 98.2056C96.6647 97.8374 97.3883 97.6533 98.3193 97.6533C98.5648 97.6533 98.8123 97.6702 99.062 97.7041C99.3117 97.7337 99.5677 97.7824 99.8301 97.8501V97.8057C99.8301 97.319 99.7137 96.9593 99.481 96.7266C99.2482 96.4938 98.8864 96.3774 98.3955 96.3774C98.0654 96.3774 97.6973 96.4663 97.291 96.644C96.8848 96.8218 96.616 96.9106 96.4849 96.9106C96.3621 96.9106 96.2606 96.862 96.1802 96.7646C96.0998 96.6631 96.0596 96.534 96.0596 96.3774C96.0596 96.1278 96.2923 95.9162 96.7578 95.7427C97.2275 95.5692 97.8263 95.4824 98.5542 95.4824C99.299 95.4824 99.8618 95.6729 100.243 96.0537C100.624 96.4303 100.814 96.9889 100.814 97.7295V100.605H101.125C101.425 100.605 101.626 100.637 101.728 100.7C101.83 100.764 101.88 100.878 101.88 101.043C101.88 101.195 101.838 101.31 101.753 101.386C101.669 101.462 101.542 101.5 101.373 101.5H100.376C100.257 101.5 100.16 101.464 100.084 101.392C100.008 101.32 99.957 101.216 99.9316 101.081L99.8809 100.694ZM105.803 94.105H104.724C104.314 94.105 104.056 94.0732 103.95 94.0098C103.848 93.9421 103.797 93.8215 103.797 93.6479C103.797 93.4956 103.84 93.3813 103.924 93.3052C104.013 93.229 104.14 93.1909 104.305 93.1909H106.4C106.514 93.1909 106.603 93.2142 106.667 93.2607C106.73 93.3073 106.762 93.3708 106.762 93.4512V100.605H108.755C108.916 100.605 109.032 100.641 109.104 100.713C109.18 100.781 109.218 100.891 109.218 101.043C109.218 101.216 109.182 101.337 109.11 101.405C109.038 101.468 108.903 101.5 108.704 101.5H104.02C103.854 101.5 103.728 101.462 103.639 101.386C103.554 101.31 103.512 101.195 103.512 101.043C103.512 100.895 103.556 100.785 103.645 100.713C103.734 100.641 103.867 100.605 104.045 100.605H105.803V94.105ZM114.036 100.77C114.688 100.77 115.221 100.565 115.636 100.154C116.055 99.7396 116.264 99.2127 116.264 98.5737C116.264 97.9347 116.055 97.4079 115.636 96.9932C115.217 96.5742 114.684 96.3647 114.036 96.3647C113.389 96.3647 112.855 96.5742 112.437 96.9932C112.022 97.4079 111.814 97.9347 111.814 98.5737C111.814 99.217 112.022 99.7438 112.437 100.154C112.851 100.565 113.384 100.77 114.036 100.77ZM117.369 98.5737C117.369 99.4793 117.06 100.22 116.442 100.795C115.824 101.371 115.022 101.659 114.036 101.659C113.054 101.659 112.255 101.371 111.637 100.795C111.019 100.22 110.71 99.4793 110.71 98.5737C110.71 97.6681 111.019 96.9297 111.637 96.3584C112.255 95.7829 113.054 95.4951 114.036 95.4951C115.018 95.4951 115.818 95.7829 116.436 96.3584C117.058 96.9339 117.369 97.6724 117.369 98.5737ZM121.666 96.5742C121.112 96.5742 120.659 96.7456 120.308 97.0884C119.956 97.4312 119.781 97.8755 119.781 98.4214C119.781 98.9588 119.956 99.401 120.308 99.748C120.659 100.091 121.112 100.262 121.666 100.262C122.216 100.262 122.667 100.091 123.018 99.748C123.374 99.401 123.551 98.9588 123.551 98.4214C123.551 97.884 123.374 97.4417 123.018 97.0947C122.667 96.7477 122.216 96.5742 121.666 96.5742ZM124.421 101.164C124.421 101.756 124.391 102.175 124.332 102.42C124.273 102.67 124.171 102.888 124.027 103.074C123.79 103.387 123.458 103.624 123.031 103.785C122.603 103.95 122.1 104.033 121.52 104.033C121.038 104.033 120.684 103.986 120.46 103.893C120.24 103.8 120.13 103.652 120.13 103.449C120.13 103.318 120.183 103.201 120.289 103.1C120.399 103.002 120.528 102.954 120.676 102.954C120.79 102.954 120.966 102.968 121.203 102.998C121.44 103.032 121.619 103.049 121.742 103.049C122.368 103.049 122.813 102.905 123.075 102.617C123.338 102.329 123.469 101.836 123.469 101.138V100.37C123.211 100.671 122.925 100.891 122.612 101.03C122.299 101.17 121.939 101.24 121.533 101.24C120.741 101.24 120.085 100.977 119.565 100.453C119.049 99.9237 118.791 99.255 118.791 98.4468C118.791 97.6343 119.057 96.9614 119.59 96.4282C120.124 95.8908 120.784 95.6221 121.571 95.6221C121.897 95.6221 122.214 95.6834 122.523 95.8062C122.836 95.9246 123.151 96.1066 123.469 96.3521V95.895C123.469 95.8062 123.496 95.7406 123.551 95.6982C123.611 95.6559 123.701 95.6348 123.824 95.6348H124.783C124.952 95.6348 125.079 95.6729 125.164 95.749C125.248 95.821 125.291 95.931 125.291 96.0791C125.291 96.2484 125.238 96.3669 125.132 96.4346C125.026 96.5023 124.827 96.5361 124.535 96.5361H124.421V101.164ZM128.407 100.459C128.407 100.129 128.521 99.8581 128.75 99.6465C128.983 99.4349 129.283 99.3291 129.651 99.3291C130.028 99.3291 130.331 99.4328 130.559 99.6401C130.788 99.8475 130.902 100.12 130.902 100.459C130.902 100.798 130.785 101.07 130.553 101.278C130.324 101.485 130.024 101.589 129.651 101.589C129.279 101.589 128.979 101.485 128.75 101.278C128.521 101.07 128.407 100.798 128.407 100.459ZM136.983 103.125H137.256C137.565 103.125 137.774 103.157 137.884 103.22C137.994 103.288 138.049 103.409 138.049 103.582C138.049 103.73 138.005 103.842 137.916 103.918C137.831 103.995 137.707 104.033 137.542 104.033H134.615C134.416 104.033 134.277 103.999 134.196 103.931C134.12 103.863 134.082 103.747 134.082 103.582C134.082 103.43 134.122 103.315 134.203 103.239C134.287 103.163 134.412 103.125 134.577 103.125H135.955L136.983 101.1L134.653 96.5361C134.374 96.5361 134.181 96.5023 134.076 96.4346C133.974 96.3669 133.923 96.2484 133.923 96.0791C133.923 95.931 133.966 95.821 134.05 95.749C134.135 95.6729 134.262 95.6348 134.431 95.6348H136.202C136.439 95.6348 136.598 95.6686 136.678 95.7363C136.759 95.7998 136.799 95.9141 136.799 96.0791C136.799 96.2484 136.746 96.3669 136.64 96.4346C136.534 96.5023 136.34 96.5361 136.056 96.5361H135.821L137.542 100.034L139.293 96.5361H139.046C138.754 96.5361 138.553 96.5023 138.443 96.4346C138.333 96.3669 138.278 96.2484 138.278 96.0791C138.278 95.9141 138.318 95.7998 138.398 95.7363C138.479 95.6686 138.64 95.6348 138.881 95.6348H140.449C140.622 95.6348 140.749 95.6729 140.83 95.749C140.914 95.821 140.957 95.931 140.957 96.0791C140.957 96.2399 140.91 96.3542 140.817 96.4219C140.724 96.4896 140.559 96.5277 140.322 96.5361L136.983 103.125ZM147.622 97.9644C147.622 97.3677 147.567 96.9657 147.457 96.7583C147.351 96.5467 147.167 96.4409 146.904 96.4409C146.591 96.4409 146.341 96.5763 146.155 96.8472C145.973 97.118 145.882 97.4904 145.882 97.9644V100.605H145.997C146.255 100.605 146.426 100.637 146.511 100.7C146.6 100.759 146.644 100.874 146.644 101.043C146.644 101.195 146.608 101.31 146.536 101.386C146.464 101.462 146.354 101.5 146.206 101.5H145.4C145.218 101.5 145.093 101.458 145.025 101.373C144.962 101.288 144.93 101.106 144.93 100.827V100.643V97.9644V97.4692C144.93 97.1519 144.858 96.9022 144.714 96.7202C144.57 96.534 144.374 96.4409 144.124 96.4409C143.934 96.4409 143.758 96.498 143.597 96.6123C143.441 96.7223 143.305 96.8874 143.191 97.1074V100.605H143.426C143.68 100.605 143.851 100.637 143.94 100.7C144.029 100.764 144.073 100.878 144.073 101.043C144.073 101.216 144.037 101.337 143.965 101.405C143.893 101.468 143.756 101.5 143.553 101.5H141.864C141.699 101.5 141.576 101.464 141.496 101.392C141.42 101.316 141.382 101.2 141.382 101.043C141.382 100.874 141.431 100.759 141.528 100.7C141.629 100.637 141.824 100.605 142.112 100.605H142.239V96.5361H142.125C141.828 96.5361 141.625 96.5023 141.515 96.4346C141.409 96.3669 141.356 96.2484 141.356 96.0791C141.356 95.931 141.399 95.821 141.483 95.749C141.568 95.6729 141.695 95.6348 141.864 95.6348H142.835C142.975 95.6348 143.066 95.6602 143.108 95.7109C143.155 95.7575 143.182 95.859 143.191 96.0156C143.364 95.8294 143.551 95.6919 143.75 95.603C143.948 95.5142 144.173 95.4697 144.422 95.4697C144.719 95.4697 144.962 95.5353 145.152 95.6665C145.347 95.7935 145.491 95.9881 145.584 96.2505C145.762 95.9839 145.967 95.7871 146.2 95.6602C146.432 95.5332 146.699 95.4697 147 95.4697C147.545 95.4697 147.943 95.6475 148.193 96.0029C148.447 96.3584 148.574 96.9339 148.574 97.7295V100.605H148.675C148.938 100.605 149.113 100.637 149.202 100.7C149.291 100.764 149.335 100.878 149.335 101.043C149.335 101.195 149.297 101.31 149.221 101.386C149.145 101.462 149.033 101.5 148.885 101.5H148.117C147.947 101.5 147.823 101.449 147.742 101.348C147.662 101.246 147.622 101.085 147.622 100.865V97.9644ZM152.649 94.105H151.57C151.159 94.105 150.901 94.0732 150.795 94.0098C150.694 93.9421 150.643 93.8215 150.643 93.6479C150.643 93.4956 150.685 93.3813 150.77 93.3052C150.859 93.229 150.986 93.1909 151.151 93.1909H153.246C153.36 93.1909 153.449 93.2142 153.512 93.2607C153.576 93.3073 153.607 93.3708 153.607 93.4512V100.605H155.601C155.761 100.605 155.878 100.641 155.95 100.713C156.026 100.781 156.064 100.891 156.064 101.043C156.064 101.216 156.028 101.337 155.956 101.405C155.884 101.468 155.749 101.5 155.55 101.5H150.865C150.7 101.5 150.573 101.462 150.484 101.386C150.4 101.31 150.357 101.195 150.357 101.043C150.357 100.895 150.402 100.785 150.491 100.713C150.58 100.641 150.713 100.605 150.891 100.605H152.649V94.105ZM18.5103 113.452H19.2783V126.699H18.5103V113.452ZM22.8076 119.509V118.859H33.7016V119.509H22.8076ZM33.7002 119.509V118.859H44.5942V119.509H33.7002ZM58.2085 123.5C58.1196 123.5 58.0562 123.479 58.0181 123.437C57.9842 123.39 57.9673 123.303 57.9673 123.176V122.656C57.7134 122.973 57.396 123.221 57.0151 123.398C56.6343 123.572 56.2217 123.659 55.7773 123.659C54.9775 123.659 54.3068 123.375 53.7651 122.808C53.2277 122.237 52.959 121.528 52.959 120.682C52.959 119.806 53.2467 119.078 53.8223 118.498C54.3978 117.914 55.1151 117.622 55.9741 117.622C56.41 117.622 56.8014 117.7 57.1484 117.857C57.4954 118.009 57.7938 118.236 58.0435 118.536V116.105H57.707C57.3389 116.105 57.0998 116.073 56.9897 116.01C56.884 115.942 56.8311 115.821 56.8311 115.648C56.8311 115.496 56.8734 115.381 56.958 115.305C57.0469 115.229 57.1738 115.191 57.3389 115.191H58.6401C58.7671 115.191 58.8581 115.212 58.9131 115.254C58.9723 115.297 59.002 115.362 59.002 115.451V122.605H59.2876C59.495 122.605 59.6452 122.641 59.7383 122.713C59.8314 122.781 59.8779 122.891 59.8779 123.043C59.8779 123.187 59.8377 123.299 59.7573 123.379C59.6769 123.46 59.569 123.5 59.4336 123.5H58.2085ZM54.0508 120.65C54.0508 121.234 54.2391 121.712 54.6157 122.084C54.9924 122.457 55.4705 122.643 56.0503 122.643C56.6343 122.643 57.1146 122.451 57.4912 122.065C57.8678 121.676 58.0562 121.183 58.0562 120.586C58.0562 119.998 57.8678 119.514 57.4912 119.133C57.1188 118.752 56.6385 118.562 56.0503 118.562C55.4536 118.562 54.9712 118.754 54.603 119.139C54.2349 119.524 54.0508 120.028 54.0508 120.65ZM65.5146 120.694C65.2819 120.618 65.0555 120.563 64.8354 120.529C64.6196 120.491 64.4038 120.472 64.188 120.472C63.5363 120.472 63.0221 120.582 62.6455 120.802C62.2689 121.022 62.0806 121.319 62.0806 121.691C62.0806 121.979 62.1969 122.216 62.4297 122.402C62.6667 122.588 62.9671 122.681 63.3311 122.681C63.8685 122.681 64.3657 122.542 64.8228 122.262C65.284 121.979 65.5146 121.685 65.5146 121.38V120.694ZM65.5654 122.694C65.2184 123.007 64.8397 123.246 64.4292 123.411C64.0229 123.576 63.604 123.659 63.1724 123.659C62.5418 123.659 62.0319 123.483 61.6426 123.132C61.2575 122.781 61.0649 122.324 61.0649 121.761C61.0649 121.092 61.321 120.574 61.833 120.206C62.3493 119.837 63.0729 119.653 64.0039 119.653C64.2493 119.653 64.4969 119.67 64.7466 119.704C64.9963 119.734 65.2523 119.782 65.5146 119.85V119.806C65.5146 119.319 65.3983 118.959 65.1655 118.727C64.9328 118.494 64.571 118.377 64.0801 118.377C63.75 118.377 63.3818 118.466 62.9756 118.644C62.5693 118.822 62.3006 118.911 62.1694 118.911C62.0467 118.911 61.9451 118.862 61.8647 118.765C61.7843 118.663 61.7441 118.534 61.7441 118.377C61.7441 118.128 61.9769 117.916 62.4424 117.743C62.9121 117.569 63.5109 117.482 64.2388 117.482C64.9836 117.482 65.5464 117.673 65.9272 118.054C66.3081 118.43 66.4985 118.989 66.4985 119.729V122.605H66.8096C67.11 122.605 67.311 122.637 67.4126 122.7C67.5142 122.764 67.5649 122.878 67.5649 123.043C67.5649 123.195 67.5226 123.31 67.438 123.386C67.3534 123.462 67.2264 123.5 67.0571 123.5H66.0605C65.9421 123.5 65.8447 123.464 65.7686 123.392C65.6924 123.32 65.6416 123.216 65.6162 123.081L65.5654 122.694ZM73.646 117.99C73.8534 117.99 74.0036 118.026 74.0967 118.098C74.194 118.17 74.2427 118.284 74.2427 118.441C74.2427 118.589 74.1982 118.701 74.1094 118.777C74.0205 118.849 73.8872 118.885 73.7095 118.885H71.1387V121.005C71.1387 121.699 71.2275 122.156 71.4053 122.376C71.5872 122.597 71.8962 122.707 72.332 122.707C72.7171 122.707 73.1784 122.594 73.7158 122.37C74.2533 122.146 74.5854 122.034 74.7124 122.034C74.8309 122.034 74.9303 122.076 75.0107 122.161C75.0954 122.245 75.1377 122.349 75.1377 122.472C75.1377 122.611 75.0848 122.734 74.979 122.84C74.8774 122.941 74.7018 123.041 74.4521 123.138C74.0374 123.303 73.6629 123.424 73.3286 123.5C72.9985 123.576 72.6875 123.614 72.3955 123.614C71.9004 123.614 71.4836 123.536 71.145 123.379C70.8107 123.219 70.561 122.982 70.396 122.668C70.3114 122.52 70.25 122.345 70.2119 122.142C70.1781 121.938 70.1611 121.625 70.1611 121.202V121.005V118.885H69.082C68.9043 118.885 68.7752 118.851 68.6948 118.784C68.6144 118.712 68.5742 118.597 68.5742 118.441C68.5742 118.267 68.6292 118.149 68.7393 118.085C68.8493 118.022 69.0841 117.99 69.4438 117.99H70.1611V116.689V116.353C70.1611 116.171 70.1992 116.037 70.2754 115.953C70.3558 115.864 70.4785 115.819 70.6436 115.819C70.8298 115.819 70.9588 115.872 71.0308 115.978C71.1027 116.084 71.1387 116.325 71.1387 116.702V117.99H73.646ZM81.1299 120.694C80.8971 120.618 80.6707 120.563 80.4507 120.529C80.2349 120.491 80.019 120.472 79.8032 120.472C79.1515 120.472 78.6374 120.582 78.2607 120.802C77.8841 121.022 77.6958 121.319 77.6958 121.691C77.6958 121.979 77.8122 122.216 78.0449 122.402C78.2819 122.588 78.5824 122.681 78.9463 122.681C79.4837 122.681 79.981 122.542 80.438 122.262C80.8993 121.979 81.1299 121.685 81.1299 121.38V120.694ZM81.1807 122.694C80.8337 123.007 80.4549 123.246 80.0444 123.411C79.6382 123.576 79.2192 123.659 78.7876 123.659C78.1571 123.659 77.6471 123.483 77.2578 123.132C76.8727 122.781 76.6802 122.324 76.6802 121.761C76.6802 121.092 76.9362 120.574 77.4482 120.206C77.9645 119.837 78.6882 119.653 79.6191 119.653C79.8646 119.653 80.1121 119.67 80.3618 119.704C80.6115 119.734 80.8675 119.782 81.1299 119.85V119.806C81.1299 119.319 81.0135 118.959 80.7808 118.727C80.548 118.494 80.1862 118.377 79.6953 118.377C79.3652 118.377 78.9971 118.466 78.5908 118.644C78.1846 118.822 77.9159 118.911 77.7847 118.911C77.6619 118.911 77.5604 118.862 77.48 118.765C77.3996 118.663 77.3594 118.534 77.3594 118.377C77.3594 118.128 77.5921 117.916 78.0576 117.743C78.5273 117.569 79.1261 117.482 79.854 117.482C80.5988 117.482 81.1616 117.673 81.5425 118.054C81.9233 118.43 82.1138 118.989 82.1138 119.729V122.605H82.4248C82.7253 122.605 82.9263 122.637 83.0278 122.7C83.1294 122.764 83.1802 122.878 83.1802 123.043C83.1802 123.195 83.1379 123.31 83.0532 123.386C82.9686 123.462 82.8416 123.5 82.6724 123.5H81.6758C81.5573 123.5 81.46 123.464 81.3838 123.392C81.3076 123.32 81.2568 123.216 81.2314 123.081L81.1807 122.694ZM18.5103 135.452H19.2783V148.699H18.5103V135.452ZM22.8076 141.509V140.859H33.7016V141.509H22.8076ZM33.7002 141.509V140.859H44.5942V141.509H33.7002ZM53.5303 145.043V143.913C53.5303 143.727 53.5641 143.594 53.6318 143.513C53.7038 143.433 53.818 143.393 53.9746 143.393C54.1481 143.393 54.2856 143.511 54.3872 143.748C54.4549 143.892 54.5163 144 54.5713 144.072C54.749 144.3 55.0114 144.484 55.3584 144.624C55.7054 144.759 56.0884 144.827 56.5073 144.827C56.9559 144.827 57.3156 144.736 57.5864 144.554C57.8573 144.372 57.9927 144.133 57.9927 143.837C57.9927 143.536 57.8826 143.323 57.6626 143.196C57.4468 143.069 57.0744 143.005 56.5454 143.005H56.1963C55.333 143.005 54.675 142.855 54.2222 142.555C53.7694 142.254 53.543 141.818 53.543 141.247C53.543 140.688 53.763 140.255 54.2031 139.946C54.6475 139.637 55.2695 139.482 56.0693 139.482C56.3952 139.482 56.7274 139.529 57.0659 139.622C57.4045 139.711 57.5822 139.755 57.5991 139.755C57.6457 139.755 57.7345 139.715 57.8657 139.635C57.9969 139.55 58.126 139.508 58.2529 139.508C58.3968 139.508 58.5026 139.561 58.5703 139.667C58.6423 139.772 58.6782 139.931 58.6782 140.143V140.885C58.6782 141.11 58.6444 141.272 58.5767 141.374C58.509 141.471 58.401 141.52 58.2529 141.52C58.126 141.52 57.9694 141.412 57.7832 141.196C57.652 141.048 57.5441 140.936 57.4595 140.86C57.2352 140.653 56.9961 140.504 56.7422 140.416C56.4883 140.322 56.1899 140.276 55.8472 140.276C55.4494 140.276 55.1278 140.365 54.8823 140.542C54.6411 140.716 54.5205 140.938 54.5205 141.209C54.5205 141.476 54.6453 141.666 54.895 141.78C55.1447 141.895 55.6821 141.96 56.5073 141.977C57.3875 141.998 58.0308 142.153 58.437 142.44C58.8433 142.724 59.0464 143.164 59.0464 143.761C59.0464 144.332 58.8221 144.789 58.3735 145.132C57.925 145.475 57.3198 145.646 56.5581 145.646C56.3169 145.646 56.0482 145.623 55.752 145.576C55.4557 145.534 55.0833 145.46 54.6348 145.354C54.4867 145.451 54.3597 145.523 54.2539 145.57C54.1481 145.621 54.0592 145.646 53.9873 145.646C53.8392 145.646 53.7249 145.595 53.6445 145.494C53.5684 145.388 53.5303 145.238 53.5303 145.043ZM63.4834 144.605H65.5908C65.7559 144.605 65.8765 144.641 65.9526 144.713C66.033 144.781 66.0732 144.891 66.0732 145.043C66.0732 145.216 66.0352 145.337 65.959 145.405C65.887 145.468 65.7516 145.5 65.5527 145.5H61.4014C61.2363 145.5 61.1115 145.462 61.0269 145.386C60.9422 145.31 60.8999 145.195 60.8999 145.043C60.8999 144.895 60.9422 144.785 61.0269 144.713C61.1157 144.641 61.2511 144.605 61.4331 144.605H62.5376V140.536H62.106C61.6955 140.536 61.4395 140.504 61.3379 140.441C61.2363 140.373 61.1855 140.253 61.1855 140.079C61.1855 139.931 61.2257 139.821 61.3062 139.749C61.3908 139.673 61.5177 139.635 61.687 139.635H63.1343C63.2485 139.635 63.3353 139.658 63.3945 139.705C63.4538 139.747 63.4834 139.81 63.4834 139.895V140.974C63.8854 140.471 64.3044 140.096 64.7402 139.851C65.1761 139.605 65.6458 139.482 66.1494 139.482C66.526 139.482 66.8307 139.559 67.0635 139.711C67.2962 139.863 67.4126 140.06 67.4126 140.301C67.4126 140.458 67.3534 140.597 67.2349 140.72C67.1206 140.839 66.9937 140.898 66.854 140.898C66.7567 140.898 66.5916 140.834 66.3589 140.708C66.1304 140.576 65.9251 140.511 65.7432 140.511C65.4131 140.511 65.064 140.629 64.6958 140.866C64.3319 141.099 63.9277 141.469 63.4834 141.977V144.605ZM73.8237 140.016V139.99C73.8237 139.851 73.8639 139.749 73.9443 139.686C74.0247 139.618 74.1496 139.584 74.3188 139.584C74.4924 139.584 74.6108 139.635 74.6743 139.736C74.742 139.838 74.7759 140.047 74.7759 140.365V141.545C74.7759 141.702 74.7357 141.82 74.6553 141.901C74.5749 141.977 74.4543 142.015 74.2935 142.015C74.1792 142.015 74.0798 141.983 73.9951 141.92C73.9147 141.852 73.8153 141.715 73.6968 141.507C73.4937 141.165 73.2461 140.906 72.9541 140.733C72.6663 140.555 72.3341 140.466 71.9575 140.466C71.2974 140.466 70.7599 140.661 70.3452 141.05C69.9347 141.44 69.7295 141.943 69.7295 142.561C69.7295 143.192 69.9263 143.708 70.3198 144.11C70.7176 144.508 71.2275 144.707 71.8496 144.707C72.1331 144.707 72.4019 144.668 72.6558 144.592C72.9139 144.512 73.1572 144.393 73.3857 144.237C73.4661 144.186 73.5741 144.108 73.7095 144.002C73.9845 143.778 74.2004 143.666 74.3569 143.666C74.4881 143.666 74.5939 143.708 74.6743 143.792C74.759 143.873 74.8013 143.979 74.8013 144.11C74.8013 144.444 74.4839 144.787 73.8491 145.138C73.2186 145.485 72.5479 145.659 71.8369 145.659C70.9186 145.659 70.1527 145.365 69.5391 144.776C68.9297 144.188 68.625 143.454 68.625 142.574C68.625 141.694 68.9297 140.959 69.5391 140.371C70.1484 139.779 70.9102 139.482 71.8242 139.482C72.1458 139.482 72.4674 139.527 72.7891 139.616C73.1149 139.7 73.4598 139.834 73.8237 140.016ZM35.7372 163.509V153.486H36.3872V162.859H41.6392V163.509H35.7372ZM41.5078 163.509V162.859H52.4018V163.509H41.5078ZM52.4004 163.509V162.859H63.2944V163.509H52.4004ZM72.6367 166.605V162.536H72.5161C72.2284 162.536 72.0295 162.502 71.9194 162.435C71.8136 162.367 71.7607 162.248 71.7607 162.079C71.7607 161.923 71.8052 161.81 71.894 161.743C71.9829 161.671 72.1268 161.635 72.3257 161.635H72.624H73.2334C73.3477 161.635 73.4365 161.658 73.5 161.705C73.5635 161.751 73.5952 161.815 73.5952 161.895V162.327C73.9041 162.039 74.2088 161.827 74.5093 161.692C74.814 161.552 75.1292 161.482 75.4551 161.482C76.0941 161.482 76.5955 161.681 76.9595 162.079C77.3276 162.477 77.5117 163.027 77.5117 163.729V166.605H77.8101C78.0216 166.605 78.174 166.641 78.2671 166.713C78.3602 166.781 78.4067 166.891 78.4067 167.043C78.4067 167.208 78.356 167.326 78.2544 167.398C78.1571 167.466 77.9814 167.5 77.7275 167.5H76.3247C76.0539 167.5 75.8804 167.468 75.8042 167.405C75.728 167.341 75.6899 167.221 75.6899 167.043C75.6899 166.878 75.7344 166.764 75.8232 166.7C75.9121 166.637 76.0793 166.605 76.3247 166.605H76.5469V163.964C76.5469 163.469 76.4347 163.093 76.2104 162.834C75.9862 162.572 75.6603 162.441 75.2329 162.441C74.8013 162.441 74.4204 162.587 74.0903 162.879C73.7603 163.171 73.5952 163.533 73.5952 163.964V166.605H73.8174C74.0713 166.605 74.2427 166.637 74.3315 166.7C74.4204 166.764 74.4648 166.878 74.4648 167.043C74.4648 167.221 74.4268 167.341 74.3506 167.405C74.2744 167.468 74.0882 167.5 73.792 167.5H72.6367H72.2939C72.1204 167.5 71.9893 167.464 71.9004 167.392C71.8158 167.316 71.7734 167.2 71.7734 167.043C71.7734 166.874 71.8221 166.759 71.9194 166.7C72.021 166.637 72.2157 166.605 72.5034 166.605H72.6367ZM82.8057 166.77C83.4574 166.77 83.9906 166.565 84.4053 166.154C84.8242 165.74 85.0337 165.213 85.0337 164.574C85.0337 163.935 84.8242 163.408 84.4053 162.993C83.9863 162.574 83.4531 162.365 82.8057 162.365C82.1582 162.365 81.625 162.574 81.2061 162.993C80.7913 163.408 80.584 163.935 80.584 164.574C80.584 165.217 80.7913 165.744 81.2061 166.154C81.6208 166.565 82.154 166.77 82.8057 166.77ZM86.1382 164.574C86.1382 165.479 85.8293 166.22 85.2114 166.795C84.5936 167.371 83.7917 167.659 82.8057 167.659C81.8239 167.659 81.0241 167.371 80.4062 166.795C79.7884 166.22 79.4795 165.479 79.4795 164.574C79.4795 163.668 79.7884 162.93 80.4062 162.358C81.0241 161.783 81.8239 161.495 82.8057 161.495C83.7874 161.495 84.5872 161.783 85.2051 162.358C85.8271 162.934 86.1382 163.672 86.1382 164.574ZM92.5239 167.5C92.4351 167.5 92.3716 167.479 92.3335 167.437C92.2996 167.39 92.2827 167.303 92.2827 167.176V166.656C92.0288 166.973 91.7114 167.221 91.3306 167.398C90.9497 167.572 90.5371 167.659 90.0928 167.659C89.293 167.659 88.6222 167.375 88.0806 166.808C87.5431 166.237 87.2744 165.528 87.2744 164.682C87.2744 163.806 87.5622 163.078 88.1377 162.498C88.7132 161.914 89.4305 161.622 90.2896 161.622C90.7254 161.622 91.1169 161.7 91.4639 161.857C91.8109 162.009 92.1092 162.236 92.3589 162.536V160.105H92.0225C91.6543 160.105 91.4152 160.073 91.3052 160.01C91.1994 159.942 91.1465 159.821 91.1465 159.648C91.1465 159.496 91.1888 159.381 91.2734 159.305C91.3623 159.229 91.4893 159.191 91.6543 159.191H92.9556C93.0825 159.191 93.1735 159.212 93.2285 159.254C93.2878 159.297 93.3174 159.362 93.3174 159.451V166.605H93.603C93.8104 166.605 93.9606 166.641 94.0537 166.713C94.1468 166.781 94.1934 166.891 94.1934 167.043C94.1934 167.187 94.1532 167.299 94.0728 167.379C93.9924 167.46 93.8844 167.5 93.749 167.5H92.5239ZM88.3662 164.65C88.3662 165.234 88.5545 165.712 88.9312 166.084C89.3078 166.457 89.786 166.643 90.3657 166.643C90.9497 166.643 91.43 166.451 91.8066 166.065C92.1833 165.676 92.3716 165.183 92.3716 164.586C92.3716 163.998 92.1833 163.514 91.8066 163.133C91.4342 162.752 90.9539 162.562 90.3657 162.562C89.769 162.562 89.2866 162.754 88.9185 163.139C88.5503 163.524 88.3662 164.028 88.3662 164.65ZM96.2754 164.847C96.3092 165.456 96.5145 165.928 96.8911 166.262C97.272 166.592 97.7904 166.757 98.4463 166.757C98.9414 166.757 99.481 166.626 100.065 166.364C100.649 166.097 101.002 165.964 101.125 165.964C101.252 165.964 101.358 166.004 101.442 166.084C101.527 166.165 101.569 166.264 101.569 166.383C101.569 166.506 101.525 166.618 101.436 166.719C101.347 166.821 101.205 166.92 101.011 167.018C100.588 167.225 100.15 167.384 99.6968 167.494C99.2482 167.604 98.8018 167.659 98.3574 167.659C97.3926 167.659 96.6203 167.382 96.0405 166.827C95.4608 166.269 95.1709 165.53 95.1709 164.612C95.1709 163.677 95.4777 162.919 96.0913 162.339C96.7049 161.76 97.5047 161.47 98.4907 161.47C99.3836 161.47 100.124 161.741 100.712 162.282C101.301 162.824 101.595 163.48 101.595 164.25C101.595 164.487 101.544 164.646 101.442 164.726C101.345 164.806 101.076 164.847 100.636 164.847H100.541H96.2754ZM96.3071 164.015H100.439C100.376 163.512 100.164 163.107 99.8047 162.803C99.4492 162.494 99.0112 162.339 98.4907 162.339C97.9279 162.339 97.4539 162.487 97.0688 162.784C96.6838 163.08 96.4299 163.49 96.3071 164.015ZM103.461 167.043V165.913C103.461 165.727 103.495 165.594 103.562 165.513C103.634 165.433 103.749 165.393 103.905 165.393C104.079 165.393 104.216 165.511 104.318 165.748C104.386 165.892 104.447 166 104.502 166.072C104.68 166.3 104.942 166.484 105.289 166.624C105.636 166.759 106.019 166.827 106.438 166.827C106.887 166.827 107.246 166.736 107.517 166.554C107.788 166.372 107.923 166.133 107.923 165.837C107.923 165.536 107.813 165.323 107.593 165.196C107.377 165.069 107.005 165.005 106.476 165.005H106.127C105.264 165.005 104.606 164.855 104.153 164.555C103.7 164.254 103.474 163.818 103.474 163.247C103.474 162.688 103.694 162.255 104.134 161.946C104.578 161.637 105.2 161.482 106 161.482C106.326 161.482 106.658 161.529 106.997 161.622C107.335 161.711 107.513 161.755 107.53 161.755C107.576 161.755 107.665 161.715 107.796 161.635C107.928 161.55 108.057 161.508 108.184 161.508C108.327 161.508 108.433 161.561 108.501 161.667C108.573 161.772 108.609 161.931 108.609 162.143V162.885C108.609 163.11 108.575 163.272 108.507 163.374C108.44 163.471 108.332 163.52 108.184 163.52C108.057 163.52 107.9 163.412 107.714 163.196C107.583 163.048 107.475 162.936 107.39 162.86C107.166 162.653 106.927 162.504 106.673 162.416C106.419 162.322 106.121 162.276 105.778 162.276C105.38 162.276 105.058 162.365 104.813 162.542C104.572 162.716 104.451 162.938 104.451 163.209C104.451 163.476 104.576 163.666 104.826 163.78C105.075 163.895 105.613 163.96 106.438 163.977C107.318 163.998 107.961 164.153 108.368 164.44C108.774 164.724 108.977 165.164 108.977 165.761C108.977 166.332 108.753 166.789 108.304 167.132C107.856 167.475 107.25 167.646 106.489 167.646C106.248 167.646 105.979 167.623 105.683 167.576C105.386 167.534 105.014 167.46 104.565 167.354C104.417 167.451 104.29 167.523 104.185 167.57C104.079 167.621 103.99 167.646 103.918 167.646C103.77 167.646 103.656 167.595 103.575 167.494C103.499 167.388 103.461 167.238 103.461 167.043ZM112.792 166.459C112.792 166.129 112.906 165.858 113.135 165.646C113.368 165.435 113.668 165.329 114.036 165.329C114.413 165.329 114.715 165.433 114.944 165.64C115.172 165.847 115.287 166.12 115.287 166.459C115.287 166.798 115.17 167.07 114.938 167.278C114.709 167.485 114.409 167.589 114.036 167.589C113.664 167.589 113.363 167.485 113.135 167.278C112.906 167.07 112.792 166.798 112.792 166.459ZM120.206 169.125H121.729C121.89 169.125 122.011 169.163 122.091 169.239C122.172 169.315 122.212 169.43 122.212 169.582C122.212 169.747 122.172 169.863 122.091 169.931C122.015 169.999 121.878 170.033 121.679 170.033H118.879C118.71 170.033 118.581 169.995 118.492 169.918C118.408 169.842 118.365 169.73 118.365 169.582C118.365 169.413 118.418 169.294 118.524 169.227C118.634 169.159 118.835 169.125 119.127 169.125H119.248V162.536H119.127C118.835 162.536 118.634 162.502 118.524 162.435C118.418 162.367 118.365 162.248 118.365 162.079C118.365 161.931 118.408 161.821 118.492 161.749C118.581 161.673 118.71 161.635 118.879 161.635H119.844C119.971 161.635 120.062 161.656 120.117 161.698C120.176 161.741 120.206 161.806 120.206 161.895V162.511C120.494 162.215 120.811 161.992 121.158 161.844C121.509 161.696 121.886 161.622 122.288 161.622C123.139 161.622 123.85 161.91 124.421 162.485C124.992 163.061 125.278 163.782 125.278 164.65C125.278 165.484 125.007 166.169 124.465 166.707C123.924 167.244 123.232 167.513 122.39 167.513C121.941 167.513 121.528 167.434 121.152 167.278C120.775 167.117 120.46 166.889 120.206 166.592V169.125ZM122.174 166.58C122.762 166.58 123.244 166.396 123.621 166.027C123.998 165.655 124.186 165.175 124.186 164.586C124.186 164.011 123.996 163.537 123.615 163.165C123.238 162.788 122.758 162.6 122.174 162.6C121.59 162.6 121.112 162.786 120.739 163.158C120.367 163.531 120.181 164.007 120.181 164.586C120.181 165.17 120.365 165.649 120.733 166.021C121.105 166.393 121.586 166.58 122.174 166.58ZM129.175 169.125H129.448C129.757 169.125 129.967 169.157 130.077 169.22C130.187 169.288 130.242 169.409 130.242 169.582C130.242 169.73 130.197 169.842 130.108 169.918C130.024 169.995 129.899 170.033 129.734 170.033H126.808C126.609 170.033 126.469 169.999 126.389 169.931C126.312 169.863 126.274 169.747 126.274 169.582C126.274 169.43 126.315 169.315 126.395 169.239C126.48 169.163 126.604 169.125 126.77 169.125H128.147L129.175 167.1L126.846 162.536C126.566 162.536 126.374 162.502 126.268 162.435C126.167 162.367 126.116 162.248 126.116 162.079C126.116 161.931 126.158 161.821 126.243 161.749C126.327 161.673 126.454 161.635 126.624 161.635H128.395C128.632 161.635 128.79 161.669 128.871 161.736C128.951 161.8 128.991 161.914 128.991 162.079C128.991 162.248 128.938 162.367 128.833 162.435C128.727 162.502 128.532 162.536 128.249 162.536H128.014L129.734 166.034L131.486 162.536H131.238C130.946 162.536 130.745 162.502 130.635 162.435C130.525 162.367 130.47 162.248 130.47 162.079C130.47 161.914 130.51 161.8 130.591 161.736C130.671 161.669 130.832 161.635 131.073 161.635H132.641C132.815 161.635 132.942 161.673 133.022 161.749C133.107 161.821 133.149 161.931 133.149 162.079C133.149 162.24 133.102 162.354 133.009 162.422C132.916 162.49 132.751 162.528 132.514 162.536L129.175 169.125ZM35.7372 185.509V175.486H36.3872V184.859H41.6392V185.509H35.7372ZM41.5078 185.509V184.859H52.4018V185.509H41.5078ZM52.4004 185.509V184.859H63.2944V185.509H52.4004ZM73.3604 191.125H74.8838C75.0446 191.125 75.1652 191.163 75.2456 191.239C75.326 191.315 75.3662 191.43 75.3662 191.582C75.3662 191.747 75.326 191.863 75.2456 191.931C75.1694 191.999 75.0319 192.033 74.833 192.033H72.0337C71.8644 192.033 71.7354 191.995 71.6465 191.918C71.5618 191.842 71.5195 191.73 71.5195 191.582C71.5195 191.413 71.5724 191.294 71.6782 191.227C71.7882 191.159 71.9893 191.125 72.2812 191.125H72.4019V184.536H72.2812C71.9893 184.536 71.7882 184.502 71.6782 184.435C71.5724 184.367 71.5195 184.248 71.5195 184.079C71.5195 183.931 71.5618 183.821 71.6465 183.749C71.7354 183.673 71.8644 183.635 72.0337 183.635H72.9985C73.1255 183.635 73.2165 183.656 73.2715 183.698C73.3307 183.741 73.3604 183.806 73.3604 183.895V184.511C73.6481 184.215 73.9655 183.992 74.3125 183.844C74.6637 183.696 75.0404 183.622 75.4424 183.622C76.293 183.622 77.0039 183.91 77.5752 184.485C78.1465 185.061 78.4321 185.782 78.4321 186.65C78.4321 187.484 78.1613 188.169 77.6196 188.707C77.078 189.244 76.3861 189.513 75.5439 189.513C75.0954 189.513 74.6828 189.434 74.3062 189.278C73.9295 189.117 73.6143 188.889 73.3604 188.592V191.125ZM75.3281 188.58C75.9163 188.58 76.3988 188.396 76.7754 188.027C77.152 187.655 77.3403 187.175 77.3403 186.586C77.3403 186.011 77.1499 185.537 76.769 185.165C76.3924 184.788 75.9121 184.6 75.3281 184.6C74.7441 184.6 74.266 184.786 73.8936 185.158C73.5212 185.531 73.335 186.007 73.335 186.586C73.335 187.17 73.519 187.649 73.8872 188.021C74.2596 188.393 74.7399 188.58 75.3281 188.58ZM82.2217 181.807C82.2217 181.35 82.2619 181.062 82.3423 180.943C82.4269 180.825 82.6047 180.766 82.8755 180.766C83.1379 180.766 83.3114 180.816 83.396 180.918C83.4806 181.015 83.5229 181.25 83.5229 181.623C83.5229 181.986 83.4827 182.213 83.4023 182.302C83.3262 182.386 83.1506 182.429 82.8755 182.429C82.6047 182.429 82.4269 182.389 82.3423 182.308C82.2619 182.228 82.2217 182.061 82.2217 181.807ZM83.396 188.605H85.4336C85.5986 188.605 85.7192 188.641 85.7954 188.713C85.8758 188.781 85.916 188.891 85.916 189.043C85.916 189.216 85.8779 189.337 85.8018 189.405C85.7298 189.468 85.5944 189.5 85.3955 189.5H80.4697C80.3005 189.5 80.1735 189.462 80.0889 189.386C80.0042 189.31 79.9619 189.195 79.9619 189.043C79.9619 188.895 80.0063 188.785 80.0952 188.713C80.1841 188.641 80.3174 188.605 80.4951 188.605H82.4312V184.536H81.1934C81.0199 184.536 80.8866 184.498 80.7935 184.422C80.7046 184.341 80.6602 184.227 80.6602 184.079C80.6602 183.931 80.7025 183.821 80.7871 183.749C80.8717 183.673 80.9987 183.635 81.168 183.635H83.0278C83.1421 183.635 83.231 183.658 83.2944 183.705C83.3621 183.751 83.396 183.815 83.396 183.895V188.605ZM88.9756 191.125H90.499C90.6598 191.125 90.7804 191.163 90.8608 191.239C90.9412 191.315 90.9814 191.43 90.9814 191.582C90.9814 191.747 90.9412 191.863 90.8608 191.931C90.7847 191.999 90.6471 192.033 90.4482 192.033H87.6489C87.4797 192.033 87.3506 191.995 87.2617 191.918C87.1771 191.842 87.1348 191.73 87.1348 191.582C87.1348 191.413 87.1877 191.294 87.2935 191.227C87.4035 191.159 87.6045 191.125 87.8965 191.125H88.0171V184.536H87.8965C87.6045 184.536 87.4035 184.502 87.2935 184.435C87.1877 184.367 87.1348 184.248 87.1348 184.079C87.1348 183.931 87.1771 183.821 87.2617 183.749C87.3506 183.673 87.4797 183.635 87.6489 183.635H88.6138C88.7407 183.635 88.8317 183.656 88.8867 183.698C88.946 183.741 88.9756 183.806 88.9756 183.895V184.511C89.2633 184.215 89.5807 183.992 89.9277 183.844C90.279 183.696 90.6556 183.622 91.0576 183.622C91.9082 183.622 92.6191 183.91 93.1904 184.485C93.7617 185.061 94.0474 185.782 94.0474 186.65C94.0474 187.484 93.7765 188.169 93.2349 188.707C92.6932 189.244 92.0013 189.513 91.1592 189.513C90.7106 189.513 90.298 189.434 89.9214 189.278C89.5448 189.117 89.2295 188.889 88.9756 188.592V191.125ZM90.9434 188.58C91.5316 188.58 92.014 188.396 92.3906 188.027C92.7673 187.655 92.9556 187.175 92.9556 186.586C92.9556 186.011 92.7651 185.537 92.3843 185.165C92.0076 184.788 91.5273 184.6 90.9434 184.6C90.3594 184.6 89.8812 184.786 89.5088 185.158C89.1364 185.531 88.9502 186.007 88.9502 186.586C88.9502 187.17 89.1343 187.649 89.5024 188.021C89.8748 188.393 90.3551 188.58 90.9434 188.58ZM96.2754 186.847C96.3092 187.456 96.5145 187.928 96.8911 188.262C97.272 188.592 97.7904 188.757 98.4463 188.757C98.9414 188.757 99.481 188.626 100.065 188.364C100.649 188.097 101.002 187.964 101.125 187.964C101.252 187.964 101.358 188.004 101.442 188.084C101.527 188.165 101.569 188.264 101.569 188.383C101.569 188.506 101.525 188.618 101.436 188.719C101.347 188.821 101.205 188.92 101.011 189.018C100.588 189.225 100.15 189.384 99.6968 189.494C99.2482 189.604 98.8018 189.659 98.3574 189.659C97.3926 189.659 96.6203 189.382 96.0405 188.827C95.4608 188.269 95.1709 187.53 95.1709 186.612C95.1709 185.677 95.4777 184.919 96.0913 184.339C96.7049 183.76 97.5047 183.47 98.4907 183.47C99.3836 183.47 100.124 183.741 100.712 184.282C101.301 184.824 101.595 185.48 101.595 186.25C101.595 186.487 101.544 186.646 101.442 186.726C101.345 186.806 101.076 186.847 100.636 186.847H100.541H96.2754ZM96.3071 186.015H100.439C100.376 185.512 100.164 185.107 99.8047 184.803C99.4492 184.494 99.0112 184.339 98.4907 184.339C97.9279 184.339 97.4539 184.487 97.0688 184.784C96.6838 185.08 96.4299 185.49 96.3071 186.015ZM105.803 182.105H104.724C104.314 182.105 104.056 182.073 103.95 182.01C103.848 181.942 103.797 181.821 103.797 181.648C103.797 181.496 103.84 181.381 103.924 181.305C104.013 181.229 104.14 181.191 104.305 181.191H106.4C106.514 181.191 106.603 181.214 106.667 181.261C106.73 181.307 106.762 181.371 106.762 181.451V188.605H108.755C108.916 188.605 109.032 188.641 109.104 188.713C109.18 188.781 109.218 188.891 109.218 189.043C109.218 189.216 109.182 189.337 109.11 189.405C109.038 189.468 108.903 189.5 108.704 189.5H104.02C103.854 189.5 103.728 189.462 103.639 189.386C103.554 189.31 103.512 189.195 103.512 189.043C103.512 188.895 103.556 188.785 103.645 188.713C103.734 188.641 103.867 188.605 104.045 188.605H105.803V182.105ZM113.452 181.807C113.452 181.35 113.492 181.062 113.573 180.943C113.657 180.825 113.835 180.766 114.106 180.766C114.368 180.766 114.542 180.816 114.626 180.918C114.711 181.015 114.753 181.25 114.753 181.623C114.753 181.986 114.713 182.213 114.633 182.302C114.557 182.386 114.381 182.429 114.106 182.429C113.835 182.429 113.657 182.389 113.573 182.308C113.492 182.228 113.452 182.061 113.452 181.807ZM114.626 188.605H116.664C116.829 188.605 116.95 188.641 117.026 188.713C117.106 188.781 117.146 188.891 117.146 189.043C117.146 189.216 117.108 189.337 117.032 189.405C116.96 189.468 116.825 189.5 116.626 189.5H111.7C111.531 189.5 111.404 189.462 111.319 189.386C111.235 189.31 111.192 189.195 111.192 189.043C111.192 188.895 111.237 188.785 111.326 188.713C111.415 188.641 111.548 188.605 111.726 188.605H113.662V184.536H112.424C112.25 184.536 112.117 184.498 112.024 184.422C111.935 184.341 111.891 184.227 111.891 184.079C111.891 183.931 111.933 183.821 112.018 183.749C112.102 183.673 112.229 183.635 112.398 183.635H114.258C114.373 183.635 114.461 183.658 114.525 183.705C114.593 183.751 114.626 183.815 114.626 183.895V188.605ZM119.482 188.605V184.536H119.362C119.074 184.536 118.875 184.502 118.765 184.435C118.659 184.367 118.606 184.248 118.606 184.079C118.606 183.923 118.651 183.81 118.74 183.743C118.829 183.671 118.972 183.635 119.171 183.635H119.47H120.079C120.193 183.635 120.282 183.658 120.346 183.705C120.409 183.751 120.441 183.815 120.441 183.895V184.327C120.75 184.039 121.055 183.827 121.355 183.692C121.66 183.552 121.975 183.482 122.301 183.482C122.94 183.482 123.441 183.681 123.805 184.079C124.173 184.477 124.357 185.027 124.357 185.729V188.605H124.656C124.867 188.605 125.02 188.641 125.113 188.713C125.206 188.781 125.252 188.891 125.252 189.043C125.252 189.208 125.202 189.326 125.1 189.398C125.003 189.466 124.827 189.5 124.573 189.5H123.17C122.9 189.5 122.726 189.468 122.65 189.405C122.574 189.341 122.536 189.221 122.536 189.043C122.536 188.878 122.58 188.764 122.669 188.7C122.758 188.637 122.925 188.605 123.17 188.605H123.393V185.964C123.393 185.469 123.28 185.093 123.056 184.834C122.832 184.572 122.506 184.441 122.079 184.441C121.647 184.441 121.266 184.587 120.936 184.879C120.606 185.171 120.441 185.533 120.441 185.964V188.605H120.663C120.917 188.605 121.088 188.637 121.177 188.7C121.266 188.764 121.311 188.878 121.311 189.043C121.311 189.221 121.272 189.341 121.196 189.405C121.12 189.468 120.934 189.5 120.638 189.5H119.482H119.14C118.966 189.5 118.835 189.464 118.746 189.392C118.661 189.316 118.619 189.2 118.619 189.043C118.619 188.874 118.668 188.759 118.765 188.7C118.867 188.637 119.061 188.605 119.349 188.605H119.482ZM127.506 186.847C127.54 187.456 127.745 187.928 128.122 188.262C128.502 188.592 129.021 188.757 129.677 188.757C130.172 188.757 130.711 188.626 131.295 188.364C131.879 188.097 132.233 187.964 132.355 187.964C132.482 187.964 132.588 188.004 132.673 188.084C132.757 188.165 132.8 188.264 132.8 188.383C132.8 188.506 132.755 188.618 132.667 188.719C132.578 188.821 132.436 188.92 132.241 189.018C131.818 189.225 131.38 189.384 130.927 189.494C130.479 189.604 130.032 189.659 129.588 189.659C128.623 189.659 127.851 189.382 127.271 188.827C126.691 188.269 126.401 187.53 126.401 186.612C126.401 185.677 126.708 184.919 127.322 184.339C127.935 183.76 128.735 183.47 129.721 183.47C130.614 183.47 131.355 183.741 131.943 184.282C132.531 184.824 132.825 185.48 132.825 186.25C132.825 186.487 132.774 186.646 132.673 186.726C132.576 186.806 132.307 186.847 131.867 186.847H131.771H127.506ZM127.538 186.015H131.67C131.606 185.512 131.395 185.107 131.035 184.803C130.68 184.494 130.242 184.339 129.721 184.339C129.158 184.339 128.684 184.487 128.299 184.784C127.914 185.08 127.66 185.49 127.538 186.015ZM136.215 188.459C136.215 188.129 136.329 187.858 136.558 187.646C136.79 187.435 137.091 187.329 137.459 187.329C137.836 187.329 138.138 187.433 138.367 187.64C138.595 187.847 138.709 188.12 138.709 188.459C138.709 188.798 138.593 189.07 138.36 189.278C138.132 189.485 137.831 189.589 137.459 189.589C137.087 189.589 136.786 189.485 136.558 189.278C136.329 189.07 136.215 188.798 136.215 188.459ZM143.629 191.125H145.152C145.313 191.125 145.434 191.163 145.514 191.239C145.595 191.315 145.635 191.43 145.635 191.582C145.635 191.747 145.595 191.863 145.514 191.931C145.438 191.999 145.3 192.033 145.102 192.033H142.302C142.133 192.033 142.004 191.995 141.915 191.918C141.83 191.842 141.788 191.73 141.788 191.582C141.788 191.413 141.841 191.294 141.947 191.227C142.057 191.159 142.258 191.125 142.55 191.125H142.67V184.536H142.55C142.258 184.536 142.057 184.502 141.947 184.435C141.841 184.367 141.788 184.248 141.788 184.079C141.788 183.931 141.83 183.821 141.915 183.749C142.004 183.673 142.133 183.635 142.302 183.635H143.267C143.394 183.635 143.485 183.656 143.54 183.698C143.599 183.741 143.629 183.806 143.629 183.895V184.511C143.917 184.215 144.234 183.992 144.581 183.844C144.932 183.696 145.309 183.622 145.711 183.622C146.562 183.622 147.272 183.91 147.844 184.485C148.415 185.061 148.701 185.782 148.701 186.65C148.701 187.484 148.43 188.169 147.888 188.707C147.347 189.244 146.655 189.513 145.812 189.513C145.364 189.513 144.951 189.434 144.575 189.278C144.198 189.117 143.883 188.889 143.629 188.592V191.125ZM145.597 188.58C146.185 188.58 146.667 188.396 147.044 188.027C147.421 187.655 147.609 187.175 147.609 186.586C147.609 186.011 147.418 185.537 147.038 185.165C146.661 184.788 146.181 184.6 145.597 184.6C145.013 184.6 144.535 184.786 144.162 185.158C143.79 185.531 143.604 186.007 143.604 186.586C143.604 187.17 143.788 187.649 144.156 188.021C144.528 188.393 145.008 188.58 145.597 188.58ZM152.598 191.125H152.871C153.18 191.125 153.389 191.157 153.5 191.22C153.61 191.288 153.665 191.409 153.665 191.582C153.665 191.73 153.62 191.842 153.531 191.918C153.447 191.995 153.322 192.033 153.157 192.033H150.23C150.032 192.033 149.892 191.999 149.812 191.931C149.735 191.863 149.697 191.747 149.697 191.582C149.697 191.43 149.737 191.315 149.818 191.239C149.903 191.163 150.027 191.125 150.192 191.125H151.57L152.598 189.1L150.269 184.536C149.989 184.536 149.797 184.502 149.691 184.435C149.589 184.367 149.539 184.248 149.539 184.079C149.539 183.931 149.581 183.821 149.666 183.749C149.75 183.673 149.877 183.635 150.046 183.635H151.817C152.054 183.635 152.213 183.669 152.293 183.736C152.374 183.8 152.414 183.914 152.414 184.079C152.414 184.248 152.361 184.367 152.255 184.435C152.15 184.502 151.955 184.536 151.671 184.536H151.437L153.157 188.034L154.909 184.536H154.661C154.369 184.536 154.168 184.502 154.058 184.435C153.948 184.367 153.893 184.248 153.893 184.079C153.893 183.914 153.933 183.8 154.014 183.736C154.094 183.669 154.255 183.635 154.496 183.635H156.064C156.237 183.635 156.364 183.673 156.445 183.749C156.529 183.821 156.572 183.931 156.572 184.079C156.572 184.24 156.525 184.354 156.432 184.422C156.339 184.49 156.174 184.528 155.937 184.536L152.598 191.125Z" fill="#2F5F73"/>
<g filter="url(#filter0_d_1_8)">
<path d="M184 32C192.008 32 198.5 38.4919 198.5 46.5V194.5C198.5 202.508 192.008 209 184 209H19C10.9919 209 4.5 202.508 4.5 194.5V32H184Z" stroke="#2F5F73" shape-rendering="crispEdges"/>
</g>
<path d="M101.5 32L83 0.5" stroke="#2F5F73"/>
<line x1="4.5" y1="31.5" x2="4.5" y2="0.5" stroke="#2F5F73"/>
<path d="M83 0.5L4 0.5" stroke="#2F5F73"/>
<defs>
<filter id="filter0_d_1_8" x="0" y="31.5" width="203" height="186" filterUnits="userSpaceOnUse" color-interpolation-filters="sRGB">
<feFlood flood-opacity="0" result="BackgroundImageFix"/>
<feColorMatrix in="SourceAlpha" type="matrix" values="0 0 0 0 0 0 0 0 0 0 0 0 0 0 0 0 0 0 127 0" result="hardAlpha"/>
<feOffset dy="4"/>
<feGaussianBlur stdDeviation="2"/>
<feComposite in2="hardAlpha" operator="out"/>
<feColorMatrix type="matrix" values="0 0 0 0 0 0 0 0 0 0 0 0 0 0 0 0 0 0 0.25 0"/>
<feBlend mode="normal" in2="BackgroundImageFix" result="effect1_dropShadow_1_8"/>
<feBlend mode="normal" in="SourceGraphic" in2="effect1_dropShadow_1_8" result="shape"/>
</filter>
</defs>
</svg>
